
<svg width="116" height="30" viewBox="0 0 116 30" fill="none" xmlns="http://www.w3.org/2000/svg">
<g clip-path="url(#clip0_18_1060)">
<path fill-rule="evenodd" clip-rule="evenodd" d="M27.6706 23.1544C25.3777 26.7694 21.5926 29.3363 17.1869 29.9794L17.1399 29.9841C14.9371 30.1553 14.3319 28.9187 14.491 27.6324L14.5166 27.4607C14.5567 27.2317 14.6197 27.003 14.7011 26.7823L14.7655 26.6184L14.8001 26.5378L14.8739 26.3797C14.8867 26.3537 14.8998 26.3279 14.9131 26.3024L14.9954 26.1517C15.0237 26.1024 15.0529 26.0541 15.0828 26.0069L15.175 25.8686C15.1907 25.8461 15.2066 25.824 15.2226 25.8022L15.3209 25.6751C15.3376 25.6546 15.3545 25.6344 15.3714 25.6146L15.4749 25.5003C15.5275 25.4455 15.5811 25.3942 15.6355 25.3468C16.8357 24.3048 19.3013 24.0538 21.6637 24.4957C22.5741 24.6647 23.7372 24.4748 24.8086 24.1845L25.1435 24.0897C25.2539 24.0572 25.3628 24.0239 25.4699 23.9901L25.7854 23.8875L26.0876 23.7835L26.374 23.6802L26.6423 23.5792L26.89 23.4824L27.1148 23.3915L27.4857 23.235L27.6706 23.1544ZM3.53017 17.0215C1.58593 19.2856 2.75899 23.41 3.95921 25.0849C4.03722 25.1938 4.08938 25.3089 4.11839 25.4271C1.57218 22.7271 0.0109863 19.0809 0.0109863 15.0684C0.0109863 14.7109 0.0233818 14.3563 0.0477647 14.0049L0.054433 13.9718C0.287959 12.6679 1.39042 12.0133 2.25935 11.7569C4.2742 11.1567 6.07181 14.0646 3.53017 17.0215ZM15.011 0C17.9309 0 20.656 0.838145 22.9609 2.28801C23.2342 2.49331 23.5344 2.70505 23.8649 2.92313L24.0652 3.05371C24.49 3.37724 24.8971 3.72298 25.2847 4.08921C27.4724 6.47316 28.8166 11.0408 25.8346 13.2899C23.1694 15.2999 21.213 14.9489 19.8751 13.985L19.7205 13.8689L19.5717 13.7477C19.5473 13.7272 19.5232 13.7064 19.4993 13.6855L19.3589 13.558C19.336 13.5365 19.3133 13.5148 19.2908 13.4929L19.1588 13.3605L19.0948 13.2933L18.9711 13.1574L18.8528 13.02L18.74 12.8816L18.6327 12.743L18.5307 12.6047L18.3879 12.3993L18.2569 12.1982L18.1379 12.0037L18.065 11.8786L17.9973 11.7581L17.9055 11.587L17.8506 11.4803L17.7975 11.3735L17.6959 11.1584L17.6253 10.9992L17.5618 10.8483L17.3267 10.2015L17.2144 9.91125L17.1279 9.69837L17.0318 9.47195L16.9258 9.23367C16.9073 9.19307 16.8884 9.15204 16.869 9.11062L16.7476 8.85773C16.6631 8.6864 16.5716 8.50998 16.4725 8.33073L16.3184 8.05999C15.6256 6.88003 14.6093 5.62766 13.1645 4.92097C11.4403 4.07843 9.46289 4.06258 7.72894 4.33749L7.42558 4.38892L7.12788 4.44573L6.83645 4.50726L6.5519 4.57287L6.27483 4.6419L6.00585 4.71369L5.74557 4.78759L5.49459 4.86295L5.25352 4.93911L4.91183 5.05342L4.59585 5.16585L4.30763 5.27419L3.97005 5.40848L3.63 5.55261L3.27594 5.71473L3.23691 5.73385C4.09971 4.75383 4.95843 3.90513 5.80676 3.16903C8.34744 1.18317 11.5416 0 15.011 0Z" fill="#841618"/>
<path fill-rule="evenodd" clip-rule="evenodd" d="M3.89935 19.1656C5.29301 19.8258 6.74094 19.8819 8.17544 19.8395L8.93326 19.8106L9.43597 19.7894C11.1074 19.7229 12.7328 19.7259 14.2017 20.6222C17.2864 22.5044 18.0902 25.2486 16.7487 28.1019C15.897 29.9135 13.6967 30.036 11.7867 29.7053L11.5025 29.6525L11.224 29.5938C11.1781 29.5835 11.1325 29.5731 11.0872 29.5625L10.8193 29.4967L10.5601 29.4273L10.3108 29.3554L10.0726 29.2817L9.8467 29.2072L9.63441 29.1329L9.43691 29.0597L9.25544 28.9885L8.91171 28.8437C3.66082 26.4981 0 21.2127 0 15.0684C0 14.7545 0.0095532 14.4429 0.0283834 14.1338L0.094094 14.3917L0.139203 14.5492L0.193281 14.7236L0.256928 14.9132L0.330743 15.1165C0.343926 15.1514 0.357557 15.1868 0.37165 15.2227L0.461841 15.4433C0.973438 16.6469 1.98283 18.2579 3.89935 19.1656Z" fill="white"/>
<path fill-rule="evenodd" clip-rule="evenodd" d="M14.9999 0C15.3384 0 15.6744 0.011267 16.0073 0.0334481L15.7141 0.130539L15.3817 0.237496C15.323 0.256132 15.2627 0.275169 15.2008 0.294603C11.8259 1.35445 10.5126 3.89171 9.7999 6.46043L9.71206 6.78842L9.63008 7.11607L9.5166 7.60548L9.41248 8.09039L9.31544 8.56855L9.07397 9.79348L8.9834 10.2276L8.92118 10.5075L8.85671 10.7791C8.84574 10.8236 8.83465 10.8678 8.82342 10.9116L8.7543 11.1694L8.68123 11.4172C8.55579 11.8214 8.4111 12.1812 8.23309 12.4824C6.10963 16.0722 -0.0652388 15.4448 1.09696 9.92377C1.20545 9.40777 1.34833 8.91734 1.52003 8.45148C3.95883 3.44653 9.07872 0 14.9999 0ZM20.018 9.91831L20.1265 9.75174C20.1642 9.69587 20.2034 9.63971 20.244 9.58341L20.3706 9.41422C21.4844 7.97502 23.5798 6.54042 26.7577 7.59967C28.1736 8.06964 28.9693 9.51897 29.4158 10.9515L29.5033 11.2473C29.5171 11.2964 29.5304 11.3455 29.5435 11.3944L29.617 11.6858C29.64 11.7822 29.6617 11.8776 29.6819 11.9719L29.7187 12.1495C29.9032 13.0938 29.9999 14.0698 29.9999 15.0684C29.9999 20.821 26.791 25.8206 22.0733 28.3596C22.12 28.2741 22.1707 28.1839 22.2252 28.0892L22.3098 27.9437C23.8215 25.3709 23.4933 23.6017 22.5925 22.1395L22.4633 21.9374C22.4411 21.904 22.4187 21.8708 22.3961 21.8377L22.2571 21.6411L22.1126 21.4476L21.9633 21.2571L21.8101 21.0692L21.6536 20.8837L21.4145 20.6091L20.7671 19.8889C20.01 19.0463 19.3122 18.2165 19.0404 17.2561C18.1917 14.2568 18.5461 12.4471 19.7363 10.3867L19.921 10.0756C19.9528 10.0234 19.9852 9.97096 20.018 9.91831Z" fill="white"/>
<path d="M49.7378 11.082C49.7378 11.3499 49.6693 11.6178 49.5324 11.8188C49.3955 12.0867 49.2586 12.2876 49.0532 12.4885L43.2283 19.454L43.2967 19.5879H49.5262C49.6631 19.5879 49.7315 19.5879 49.8 19.6549C49.8513 19.7052 49.8642 19.7554 49.8674 19.8621L49.8685 19.9898V21.5302C49.8685 21.6642 49.8685 21.7981 49.8 21.8651C49.743 21.9209 49.6859 21.9302 49.5892 21.9318L40.6269 21.9321C40.2847 21.9321 40.0108 21.8651 39.8739 21.7312C39.6686 21.5972 39.6001 21.3293 39.6001 20.9944V20.5256C39.6001 20.2577 39.6686 19.9898 39.737 19.7889L39.9057 19.5242C39.9944 19.3843 40.093 19.2397 40.2162 19.1191L46.3088 11.8857V11.7518H40.7638C40.49 11.7518 40.4216 11.6178 40.4216 11.3499L40.4226 9.67573C40.4258 9.56898 40.4387 9.51875 40.49 9.46852C40.5471 9.41271 40.6041 9.40341 40.7008 9.40185L48.7109 9.40154C49.1217 9.40154 49.3955 9.46852 49.5324 9.60247C49.7378 9.73642 49.8062 10.0043 49.8062 10.4062L49.7378 11.082ZM58.5686 13.0243C57.884 12.4885 56.9256 12.2206 55.625 12.2206C55.0089 12.2206 54.4612 12.2876 53.8451 12.3546C53.229 12.4215 52.6814 12.5555 52.1337 12.7564C51.9968 12.7564 51.9284 12.8234 51.9284 12.8904C51.8599 12.9573 51.8599 13.0243 51.9284 13.1583L52.2022 14.4308C52.2022 14.5648 52.2706 14.6317 52.3391 14.6987C52.4075 14.7657 52.5445 14.7657 52.6814 14.6987L52.8354 14.659L53.1434 14.6045C53.1948 14.5941 53.2461 14.5815 53.2975 14.5648C53.5028 14.4978 53.7082 14.4308 53.982 14.4308C54.1874 14.4308 54.3928 14.3638 54.6666 14.3638H55.2827C55.625 14.3638 55.8988 14.4308 56.1041 14.4978C56.3095 14.5648 56.4464 14.6317 56.5833 14.7657C56.6176 14.7992 56.6518 14.8662 56.686 14.9415L56.7545 15.0959C56.7659 15.121 56.7773 15.1452 56.7887 15.1675C56.8435 15.3283 56.8544 15.4462 56.8566 15.5898L56.8572 15.9713H54.8719C54.1874 15.9713 53.6397 16.0382 53.1605 16.2392C52.7878 16.3433 52.498 16.5286 52.2265 16.7318L51.9968 16.9089L51.696 17.268C51.5369 17.4636 51.3978 17.6624 51.3122 17.9136C51.1069 18.3154 51.0384 18.7173 51.0384 19.1861C51.0384 19.5879 51.1069 19.9228 51.2438 20.3247C51.3122 20.6596 51.5861 20.9944 51.9284 21.2623C52.2706 21.5302 52.6814 21.7981 53.229 21.9321C53.7082 22.133 54.3928 22.2 55.2142 22.2C55.488 22.2 55.8303 22.133 56.1726 22.133C56.4464 22.0661 56.7887 22.0661 57.131 21.9991C57.2405 21.9723 57.361 21.9455 57.488 21.9187L58.0894 21.7981C58.3632 21.7312 58.7055 21.5972 58.9793 21.4633C59.1847 21.3293 59.2531 21.2623 59.3216 21.1284C59.39 20.9944 59.39 20.8605 59.39 20.7265L59.4585 15.4355C59.4585 14.3638 59.1847 13.6271 58.5686 13.0243ZM56.378 20.0568C56.1726 20.0568 56.0357 20.1238 55.8988 20.1238C55.7893 20.1773 55.6797 20.1881 55.5702 20.1902L55.2142 20.1907C54.783 20.1907 54.4071 20.1365 54.1367 19.9792L54.0505 19.9228C53.7082 19.7219 53.5713 19.521 53.5713 19.0521C53.5713 18.7842 53.6397 18.5833 53.7767 18.3824C53.8451 18.1815 53.982 18.0475 54.1874 17.9805C54.3243 17.8466 54.5297 17.7796 54.735 17.7796C54.8993 17.726 55.0198 17.7153 55.1666 17.7132L56.7202 17.7126L56.7887 19.9228C56.6518 19.9898 56.5149 20.0568 56.378 20.0568ZM69.9384 9.06667C69.8814 9.01085 69.7768 9.00155 69.6643 9L67.6173 9.00074C67.5082 9.00388 67.4569 9.01643 67.4056 9.06667C67.3542 9.06667 67.3414 9.14201 67.3382 9.2362L67.3371 12.5494C67.0633 12.4155 66.6526 12.4155 66.3787 12.3485C66.2247 12.2982 65.9937 12.2857 65.7434 12.2825L65.4888 12.2815C64.7358 12.2815 64.1197 12.4155 63.5036 12.6834C62.8875 12.9513 62.4768 13.2861 62.1345 13.755C61.8607 14.2238 61.5868 14.7596 61.3815 15.3624C61.1761 16.0321 61.1076 16.6349 61.1076 17.3047C61.1076 18.0414 61.1761 18.6442 61.313 19.247C61.4499 19.8498 61.7237 20.3186 62.066 20.7874C62.4768 21.1893 62.8875 21.5242 63.5036 21.7921C64.0512 22.06 64.8727 22.1939 65.6942 22.1939H66.3787L66.5948 22.1835L67.0526 22.1374L67.2687 22.1269C67.4512 22.1269 67.6642 22.0972 67.8873 22.0575L68.227 21.993L69.0485 21.7921C69.3223 21.7251 69.5277 21.6581 69.7331 21.5242L69.8472 21.4093C69.937 21.3137 70.0069 21.218 70.0069 21.1223C70.0616 21.0151 70.0726 20.908 70.0748 20.8008L70.0753 9.39546C70.0753 9.24933 70.0368 9.17512 69.9887 9.11889L69.9384 9.06667ZM67.3993 19.6549C67.2795 19.7721 67.0549 19.7868 66.8172 19.8335L66.7148 19.8559C66.441 19.9228 66.2356 19.9228 66.0302 19.9228C65.3457 19.9228 64.8665 19.6549 64.4557 19.32C64.045 18.9852 63.8396 18.3154 63.8396 17.3777C63.8396 16.3731 64.045 15.6364 64.3873 15.1675C64.798 14.6987 65.2772 14.4978 65.8933 14.4978L66.058 14.5083L66.4132 14.5543C66.4709 14.5606 66.5265 14.5648 66.5779 14.5648C66.6659 14.5648 66.7665 14.5771 66.8796 14.5964L67.1227 14.6429L67.3993 14.6987V19.6549ZM79.3169 13.0243C78.6323 12.4885 77.6739 12.2206 76.3733 12.2206C75.7572 12.2206 75.2095 12.2876 74.5934 12.3546C73.9773 12.4215 73.4297 12.5555 72.882 12.7564C72.7451 12.7564 72.6767 12.8234 72.6767 12.8904C72.6082 12.9573 72.6082 13.0243 72.6767 13.1583L72.9505 14.4308C72.9505 14.5648 73.0189 14.6317 73.0874 14.6987C73.1558 14.7657 73.2928 14.7657 73.4297 14.6987L73.5837 14.659L73.8917 14.6045C73.9431 14.5941 73.9944 14.5815 74.0458 14.5648C74.2101 14.5112 74.4182 14.4576 74.6 14.4383L74.7303 14.4308C74.9357 14.4308 75.1411 14.3638 75.4149 14.3638H76.031C76.3733 14.3638 76.6471 14.4308 76.8524 14.4978C77.0578 14.5648 77.1947 14.6317 77.3316 14.7657C77.3659 14.7992 77.4001 14.8662 77.4343 14.9415L77.5028 15.0959C77.5142 15.121 77.5256 15.1452 77.537 15.1675C77.5918 15.3283 77.6027 15.4462 77.6049 15.5898L77.6055 15.9713H75.6202C74.9357 15.9713 74.388 16.0382 73.9089 16.2392C73.4297 16.3731 73.0874 16.574 72.7451 16.9089L72.4443 17.268C72.2852 17.4636 72.1461 17.6624 72.0605 17.9136C71.8552 18.3154 71.7867 18.7173 71.7867 19.1861C71.7867 19.4157 71.8314 19.6454 71.8825 19.8625L71.9592 20.1773C71.9711 20.2276 71.9823 20.2768 71.9921 20.3247C72.0606 20.6596 72.3344 20.9944 72.6767 21.2623C73.0189 21.5302 73.4297 21.7981 73.9773 21.9321C74.4565 22.133 75.1411 22.2 75.9625 22.2C76.2363 22.2 76.5786 22.133 76.9209 22.133C77.1947 22.0661 77.537 22.0661 77.8793 21.9991C77.9888 21.9723 78.1093 21.9455 78.2363 21.9187L78.6328 21.8383C78.7008 21.8249 78.7692 21.8115 78.8377 21.7981C79.1115 21.7312 79.4538 21.5972 79.7276 21.4633C79.933 21.3293 80.0014 21.2623 80.0699 21.1284C80.1246 21.0212 80.1356 20.9141 80.1378 20.8069L80.2068 15.4355C80.2068 14.3638 79.933 13.6271 79.3169 13.0243ZM77.1947 20.0568C76.9894 20.0568 76.8524 20.1238 76.7155 20.1238C76.606 20.1773 76.4965 20.1881 76.387 20.1902L76.031 20.1907C75.5518 20.1907 75.1411 20.1238 74.8672 19.9228C74.525 19.7219 74.388 19.521 74.388 19.0521C74.388 18.7842 74.4565 18.5833 74.5934 18.3824C74.6276 18.2819 74.6961 18.2149 74.7731 18.1563L74.8918 18.0716C74.9116 18.0574 74.9311 18.0431 74.95 18.028L75.0041 17.9805C75.1411 17.8466 75.3464 17.7796 75.5518 17.7796C75.7161 17.726 75.8366 17.7153 75.9833 17.7132L77.537 17.7126L77.6055 19.9228C77.4686 19.9898 77.3316 20.0568 77.1947 20.0568ZM84.9987 14.6987V21.5972L84.9976 21.6956C84.9944 21.7898 84.9816 21.8651 84.9302 21.8651C84.8789 21.9154 84.8275 21.9279 84.7184 21.9311H82.6391C82.5428 21.9279 82.4658 21.9154 82.4658 21.8651C82.4088 21.8093 82.3993 21.7535 82.3977 21.6589L82.3974 14.029C82.3974 13.5601 82.4658 13.2253 82.6712 12.9573C82.8766 12.6894 83.2188 12.5555 83.698 12.4215L83.8627 12.4111L84.2179 12.365C84.2756 12.3588 84.3312 12.3546 84.3826 12.3546H85.0671C85.8201 12.3546 86.6416 12.4885 87.3946 12.6894C88.1476 12.8904 88.9007 13.2253 89.4483 13.6271C89.5168 13.6941 89.5852 13.7611 89.5852 13.828C89.5852 13.895 89.5852 13.962 89.5168 14.029L88.5584 15.5024C88.4899 15.6364 88.4215 15.7034 88.353 15.7034C88.3188 15.7034 88.2846 15.6866 88.2418 15.6615L88.1423 15.6026C88.1229 15.5917 88.102 15.5806 88.0792 15.5694C87.7369 15.3015 87.3946 15.1006 86.9839 14.8996C86.5732 14.6987 86.1624 14.6317 85.6832 14.6317L85.48 14.6328C85.2811 14.6359 85.1014 14.6485 84.9987 14.6987ZM93.0142 21.5972C93.0142 21.7312 93.0142 21.7981 92.9458 21.8651C92.8944 21.9154 92.8431 21.9279 92.734 21.9311L92.6035 21.9321L90.5862 21.9311C90.4899 21.9279 90.4129 21.9154 90.4129 21.8651C90.3559 21.8093 90.3463 21.7535 90.3448 21.6589L90.3445 14.029C90.3445 13.6271 90.4129 13.3592 90.5498 13.0913C90.6867 12.8234 91.029 12.6894 91.4397 12.5555C91.5493 12.5555 91.6588 12.5126 91.8034 12.4955L91.9189 12.4885C92.0832 12.4885 92.2475 12.4457 92.4469 12.4285L92.6035 12.4215C92.8773 12.4215 93.0827 12.3546 93.288 12.3546H93.9041C94.6572 12.3546 95.3417 12.4215 95.8894 12.5555C96.437 12.6894 96.9162 12.8904 97.3269 13.2253C97.7377 12.9573 98.2169 12.7564 98.7645 12.5555L99.2159 12.4571C99.6587 12.3629 100.082 12.2876 100.544 12.2876C101.222 12.2876 101.844 12.3961 102.361 12.5643L102.529 12.6225C103.146 12.8234 103.556 13.1583 103.899 13.4932C104.241 13.895 104.515 14.2969 104.652 14.8996C104.857 15.4355 104.925 16.0382 104.925 16.708V21.5302C104.925 21.6642 104.925 21.7312 104.857 21.7981C104.806 21.8484 104.754 21.8609 104.645 21.8641L104.515 21.8651L102.566 21.8641C102.47 21.8609 102.393 21.8484 102.393 21.7981C102.336 21.7423 102.326 21.6865 102.324 21.592V16.9759C102.324 16.1722 102.187 15.5694 101.845 15.1006C101.571 14.6317 101.023 14.4308 100.202 14.4308C99.983 14.4308 99.764 14.4308 99.5449 14.4651L99.3806 14.4978C99.0383 14.5648 98.7645 14.6317 98.6276 14.7657C98.7645 15.1006 98.833 15.4355 98.833 15.7034C98.89 15.9824 98.8995 16.2615 98.9011 16.5793L98.9014 21.4633C98.9014 21.5972 98.9014 21.6642 98.833 21.7312C98.7816 21.7814 98.7303 21.794 98.6212 21.7971L98.4907 21.7981L96.4734 21.7971C96.3771 21.794 96.3001 21.7814 96.3001 21.7312C96.243 21.6754 96.2335 21.6195 96.232 21.525L96.2306 16.4296C96.2274 16.1722 96.2145 15.9713 96.1632 15.7703C96.0947 15.5024 95.9578 15.2345 95.8209 15.1006C95.7182 14.9499 95.5385 14.8369 95.3396 14.7333L95.1364 14.6317C94.8625 14.4978 94.4518 14.4308 94.1095 14.4308H93.4934C93.3761 14.4308 93.2713 14.4431 93.1791 14.4572L93.0114 14.4845C92.9611 14.4923 92.9164 14.4978 92.8773 14.4978L93.0142 21.5972ZM114.31 13.0243C113.626 12.4885 112.667 12.2206 111.366 12.2206C110.75 12.2206 110.203 12.2876 109.587 12.3546C108.971 12.4215 108.423 12.5555 107.875 12.7564C107.738 12.7564 107.67 12.8234 107.67 12.8904C107.601 12.9573 107.601 13.0243 107.67 13.1583L107.944 14.4308C107.944 14.5648 108.012 14.6317 108.081 14.6987C108.149 14.7657 108.286 14.7657 108.423 14.6987L108.577 14.659L108.885 14.6045C108.936 14.5941 108.988 14.5815 109.039 14.5648C109.244 14.4978 109.45 14.4308 109.724 14.4308C109.929 14.4308 110.134 14.3638 110.408 14.3638H111.024C111.366 14.3638 111.64 14.4308 111.846 14.4978C112.051 14.5648 112.188 14.6317 112.325 14.7657C112.359 14.7992 112.393 14.8662 112.428 14.9415L112.496 15.0959C112.507 15.121 112.519 15.1452 112.53 15.1675C112.585 15.3283 112.596 15.4462 112.598 15.5898L112.599 15.9713H110.613C109.929 15.9713 109.381 16.0382 108.902 16.2392C108.423 16.3731 108.081 16.574 107.738 16.9089L107.437 17.268C107.278 17.4636 107.139 17.6624 107.054 17.9136C106.848 18.3154 106.78 18.7173 106.78 19.1861C106.78 19.5879 106.848 19.9228 106.985 20.3247C107.054 20.6596 107.328 20.9944 107.67 21.2623C108.012 21.5302 108.423 21.7981 108.971 21.9321C109.45 22.133 110.134 22.2 110.956 22.2C111.23 22.2 111.572 22.133 111.914 22.133C112.188 22.0661 112.53 22.0661 112.873 21.9991L113.051 21.9589L113.652 21.8383C113.716 21.8249 113.776 21.8115 113.831 21.7981C114.105 21.7312 114.447 21.5972 114.721 21.4633C114.926 21.3293 114.995 21.2623 115.063 21.1284C115.118 21.0212 115.129 20.9141 115.131 20.8069L115.132 20.7265L115.2 15.4355C115.2 14.3638 114.926 13.6271 114.31 13.0243ZM112.119 20.0568C111.914 20.0568 111.777 20.1238 111.64 20.1238C111.531 20.1773 111.421 20.1881 111.312 20.1902L110.956 20.1907C110.477 20.1907 110.066 20.1238 109.792 19.9228C109.45 19.7219 109.313 19.521 109.313 19.0521C109.313 18.7842 109.381 18.5833 109.518 18.3824C109.587 18.1815 109.724 18.0475 109.929 17.9805C110.066 17.8466 110.271 17.7796 110.477 17.7796C110.641 17.726 110.761 17.7153 110.908 17.7132L112.462 17.7126L112.53 19.9228C112.393 19.9898 112.256 20.0568 112.119 20.0568Z" fill="white"/>
</g>
<defs>
<clipPath id="clip0_18_1060">
<rect width="116" height="30" fill="white"/>
</clipPath>
</defs>
</svg>
